<svg width="49" height="11" viewBox="0 0 49 11" fill="none" xmlns="http://www.w3.org/2000/svg">
<path d="M44.8242 6.52734H42.6152C42.4512 7.04297 42.2734 7.49023 42.082 7.86914C41.8945 8.24805 41.6855 8.5625 41.4551 8.8125C41.2246 9.0625 40.9707 9.24805 40.6934 9.36914C40.4199 9.49023 40.1133 9.55078 39.7734 9.55078C39.5859 9.55078 39.4062 9.5332 39.2344 9.49805C39.0586 9.4668 38.9043 9.42188 38.7715 9.36328C38.6387 9.30469 38.5332 9.23438 38.4551 9.15234C38.373 9.07422 38.332 8.98828 38.332 8.89453C38.332 8.82422 38.3438 8.75391 38.3672 8.68359C38.3867 8.60938 38.416 8.54297 38.4551 8.48438C38.4941 8.42188 38.543 8.37305 38.6016 8.33789C38.6562 8.29883 38.7188 8.2793 38.7891 8.2793C38.8516 8.2793 38.9062 8.32227 38.9531 8.4082C39 8.49414 39.0605 8.58984 39.1348 8.69531C39.2051 8.79688 39.2969 8.89062 39.4102 8.97656C39.5234 9.0625 39.6797 9.10547 39.8789 9.10547C40.082 9.10547 40.2754 9.05664 40.459 8.95898C40.6426 8.86133 40.8184 8.70898 40.9863 8.50195C41.1582 8.29102 41.3223 8.02344 41.4785 7.69922C41.6348 7.375 41.7871 6.98438 41.9355 6.52734H40.5527V6.01172H42.0879C42.2168 5.57422 42.3418 5.13281 42.4629 4.6875C42.5879 4.24219 42.7051 3.81445 42.8145 3.4043C42.9238 2.99414 43.0215 2.61133 43.1074 2.25586C43.1934 1.89648 43.2656 1.58398 43.3242 1.31836C43.2461 1.09961 43.1387 0.953125 43.002 0.878906C42.8691 0.804688 42.6895 0.767578 42.4629 0.767578C42.252 0.767578 42.0332 0.800781 41.8066 0.867188C41.584 0.929688 41.3809 1.02148 41.1973 1.14258C41.0137 1.25977 40.8613 1.40625 40.7402 1.58203C40.623 1.75391 40.5645 1.94727 40.5645 2.16211C40.5645 2.28711 40.5801 2.38672 40.6113 2.46094C40.6465 2.53516 40.6855 2.5918 40.7285 2.63086C40.7754 2.66602 40.8203 2.68945 40.8633 2.70117C40.9062 2.70898 40.9395 2.71289 40.9629 2.71289C41.0566 2.71289 41.1348 2.69727 41.1973 2.66602C41.2637 2.63086 41.3203 2.5957 41.3672 2.56055C41.418 2.52148 41.4668 2.48633 41.5137 2.45508C41.5605 2.41992 41.6133 2.40234 41.6719 2.40234C41.7148 2.40234 41.7617 2.41406 41.8125 2.4375C41.8672 2.45703 41.916 2.49023 41.959 2.53711C42.0059 2.58398 42.0449 2.64648 42.0762 2.72461C42.1074 2.79883 42.123 2.89062 42.123 3C42.123 3.15625 42.0918 3.29102 42.0293 3.4043C41.9707 3.51758 41.8926 3.61328 41.7949 3.69141C41.7012 3.76562 41.5918 3.82227 41.4668 3.86133C41.3457 3.89648 41.2246 3.91406 41.1035 3.91406C40.916 3.91406 40.7461 3.88086 40.5938 3.81445C40.4453 3.74414 40.3184 3.65039 40.2129 3.5332C40.1074 3.41602 40.0273 3.2793 39.9727 3.12305C39.918 2.9668 39.8906 2.80273 39.8906 2.63086C39.8906 2.37305 39.9336 2.13672 40.0195 1.92188C40.1055 1.70312 40.2246 1.50586 40.377 1.33008C40.5293 1.15039 40.709 0.994141 40.916 0.861328C41.123 0.724609 41.3457 0.611328 41.584 0.521484C41.8262 0.427734 42.0781 0.357422 42.3398 0.310547C42.6016 0.263672 42.8652 0.240234 43.1309 0.240234C43.5059 0.240234 43.8223 0.271484 44.0801 0.333984C44.3418 0.392578 44.5605 0.482422 44.7363 0.603516C44.9121 0.720703 45.0527 0.871094 45.1582 1.05469C45.2676 1.23438 45.3574 1.44336 45.4277 1.68164L46.6875 6.01172H47.959V6.52734H46.8281L47.2852 8.0625C47.3008 8.12109 47.3164 8.17578 47.332 8.22656C47.3477 8.27734 47.3652 8.32227 47.3848 8.36133C47.4082 8.39648 47.4355 8.42578 47.4668 8.44922C47.502 8.47266 47.5449 8.48438 47.5957 8.48438C47.7051 8.48438 47.8066 8.4668 47.9004 8.43164C47.9941 8.39258 48.0762 8.35352 48.1465 8.31445L48.2461 8.53125C48.1758 8.58203 48.0859 8.64062 47.9766 8.70703C47.8711 8.76953 47.748 8.83008 47.6074 8.88867C47.4707 8.94727 47.3184 8.99609 47.1504 9.03516C46.9824 9.07422 46.8027 9.09375 46.6113 9.09375C46.3457 9.09375 46.1309 9.06055 45.9668 8.99414C45.8066 8.92773 45.6797 8.8457 45.5859 8.74805C45.4961 8.65039 45.4297 8.54688 45.3867 8.4375C45.3477 8.32812 45.3164 8.23242 45.293 8.15039L44.8242 6.52734ZM43.6875 2.56641C43.5273 3.21875 43.3711 3.83203 43.2188 4.40625C43.0703 4.98047 42.9219 5.51562 42.7734 6.01172H44.6836L43.6875 2.56641Z" fill="#694429"/>
<path d="M38.4023 8.23242C38.4023 8.5332 38.3223 8.75195 38.1621 8.88867C38.0059 9.02539 37.7656 9.09375 37.4414 9.09375C37.1133 9.09375 36.8711 9.02539 36.7148 8.88867C36.5586 8.75195 36.4805 8.5332 36.4805 8.23242V1.17773C36.4805 1.0918 36.4707 1.02344 36.4512 0.972656C36.4316 0.921875 36.4043 0.882812 36.3691 0.855469C36.334 0.824219 36.291 0.804688 36.2402 0.796875C36.1934 0.785156 36.1406 0.779297 36.082 0.779297C35.9961 0.779297 35.8887 0.792969 35.7598 0.820312C35.6348 0.847656 35.502 0.888672 35.3613 0.943359C35.2207 0.998047 35.0781 1.06641 34.9336 1.14844C34.793 1.22656 34.666 1.31641 34.5527 1.41797C34.4434 1.51953 34.3535 1.63281 34.2832 1.75781C34.2129 1.88281 34.1777 2.01758 34.1777 2.16211C34.1777 2.28711 34.1934 2.38672 34.2246 2.46094C34.2598 2.53516 34.2988 2.5918 34.3418 2.63086C34.3848 2.66602 34.4277 2.68945 34.4707 2.70117C34.5176 2.70898 34.5508 2.71289 34.5703 2.71289C34.668 2.71289 34.748 2.69727 34.8105 2.66602C34.873 2.63086 34.9297 2.5957 34.9805 2.56055C35.0312 2.52148 35.0781 2.48633 35.1211 2.45508C35.168 2.41992 35.2207 2.40234 35.2793 2.40234C35.3262 2.40234 35.375 2.41406 35.4258 2.4375C35.4805 2.45703 35.5293 2.49023 35.5723 2.53711C35.6191 2.58398 35.6582 2.64648 35.6895 2.72461C35.7207 2.79883 35.7363 2.89062 35.7363 3C35.7363 3.15625 35.7051 3.29102 35.6426 3.4043C35.584 3.51758 35.5059 3.61328 35.4082 3.69141C35.3145 3.76562 35.2051 3.82227 35.0801 3.86133C34.959 3.89648 34.8379 3.91406 34.7168 3.91406C34.5293 3.91406 34.3594 3.88281 34.207 3.82031C34.0586 3.75391 33.9316 3.66406 33.8262 3.55078C33.7207 3.4375 33.6406 3.30469 33.5859 3.15234C33.5312 3 33.5039 2.83789 33.5039 2.66602C33.5039 2.39648 33.5527 2.15039 33.6504 1.92773C33.748 1.70117 33.8809 1.49805 34.0488 1.31836C34.2207 1.13867 34.4199 0.982422 34.6465 0.849609C34.877 0.712891 35.125 0.599609 35.3906 0.509766C35.6562 0.419922 35.9336 0.353516 36.2227 0.310547C36.5117 0.263672 36.8008 0.240234 37.0898 0.240234C37.4102 0.240234 37.6582 0.271484 37.834 0.333984C38.0137 0.392578 38.1445 0.464844 38.2266 0.550781C38.3125 0.636719 38.3633 0.726562 38.3789 0.820312C38.3945 0.914062 38.4023 0.992188 38.4023 1.05469V8.23242Z" fill="#694429"/>
<path d="M30.082 6.52734H27.873C27.709 7.04297 27.5312 7.49023 27.3398 7.86914C27.1523 8.24805 26.9434 8.5625 26.7129 8.8125C26.4824 9.0625 26.2285 9.24805 25.9512 9.36914C25.6777 9.49023 25.3711 9.55078 25.0312 9.55078C24.8438 9.55078 24.6641 9.5332 24.4922 9.49805C24.3164 9.4668 24.1621 9.42188 24.0293 9.36328C23.8965 9.30469 23.791 9.23438 23.7129 9.15234C23.6309 9.07422 23.5898 8.98828 23.5898 8.89453C23.5898 8.82422 23.6016 8.75391 23.625 8.68359C23.6445 8.60938 23.6738 8.54297 23.7129 8.48438C23.752 8.42188 23.8008 8.37305 23.8594 8.33789C23.9141 8.29883 23.9766 8.2793 24.0469 8.2793C24.1094 8.2793 24.1641 8.32227 24.2109 8.4082C24.2578 8.49414 24.3184 8.58984 24.3926 8.69531C24.4629 8.79688 24.5547 8.89062 24.668 8.97656C24.7812 9.0625 24.9375 9.10547 25.1367 9.10547C25.3398 9.10547 25.5332 9.05664 25.7168 8.95898C25.9004 8.86133 26.0762 8.70898 26.2441 8.50195C26.416 8.29102 26.5801 8.02344 26.7363 7.69922C26.8926 7.375 27.0449 6.98438 27.1934 6.52734H25.8105V6.01172H27.3457C27.4746 5.57422 27.5996 5.13281 27.7207 4.6875C27.8457 4.24219 27.9629 3.81445 28.0723 3.4043C28.1816 2.99414 28.2793 2.61133 28.3652 2.25586C28.4512 1.89648 28.5234 1.58398 28.582 1.31836C28.5039 1.09961 28.3965 0.953125 28.2598 0.878906C28.127 0.804688 27.9473 0.767578 27.7207 0.767578C27.5098 0.767578 27.291 0.800781 27.0645 0.867188C26.8418 0.929688 26.6387 1.02148 26.4551 1.14258C26.2715 1.25977 26.1191 1.40625 25.998 1.58203C25.8809 1.75391 25.8223 1.94727 25.8223 2.16211C25.8223 2.28711 25.8379 2.38672 25.8691 2.46094C25.9043 2.53516 25.9434 2.5918 25.9863 2.63086C26.0332 2.66602 26.0781 2.68945 26.1211 2.70117C26.1641 2.70898 26.1973 2.71289 26.2207 2.71289C26.3145 2.71289 26.3926 2.69727 26.4551 2.66602C26.5215 2.63086 26.5781 2.5957 26.625 2.56055C26.6758 2.52148 26.7246 2.48633 26.7715 2.45508C26.8184 2.41992 26.8711 2.40234 26.9297 2.40234C26.9727 2.40234 27.0195 2.41406 27.0703 2.4375C27.125 2.45703 27.1738 2.49023 27.2168 2.53711C27.2637 2.58398 27.3027 2.64648 27.334 2.72461C27.3652 2.79883 27.3809 2.89062 27.3809 3C27.3809 3.15625 27.3496 3.29102 27.2871 3.4043C27.2285 3.51758 27.1504 3.61328 27.0527 3.69141C26.959 3.76562 26.8496 3.82227 26.7246 3.86133C26.6035 3.89648 26.4824 3.91406 26.3613 3.91406C26.1738 3.91406 26.0039 3.88086 25.8516 3.81445C25.7031 3.74414 25.5762 3.65039 25.4707 3.5332C25.3652 3.41602 25.2852 3.2793 25.2305 3.12305C25.1758 2.9668 25.1484 2.80273 25.1484 2.63086C25.1484 2.37305 25.1914 2.13672 25.2773 1.92188C25.3633 1.70312 25.4824 1.50586 25.6348 1.33008C25.7871 1.15039 25.9668 0.994141 26.1738 0.861328C26.3809 0.724609 26.6035 0.611328 26.8418 0.521484C27.084 0.427734 27.3359 0.357422 27.5977 0.310547C27.8594 0.263672 28.123 0.240234 28.3887 0.240234C28.7637 0.240234 29.0801 0.271484 29.3379 0.333984C29.5996 0.392578 29.8184 0.482422 29.9941 0.603516C30.1699 0.720703 30.3105 0.871094 30.416 1.05469C30.5254 1.23438 30.6152 1.44336 30.6855 1.68164L31.9453 6.01172H33.2168V6.52734H32.0859L32.543 8.0625C32.5586 8.12109 32.5742 8.17578 32.5898 8.22656C32.6055 8.27734 32.623 8.32227 32.6426 8.36133C32.666 8.39648 32.6934 8.42578 32.7246 8.44922C32.7598 8.47266 32.8027 8.48438 32.8535 8.48438C32.9629 8.48438 33.0645 8.4668 33.1582 8.43164C33.252 8.39258 33.334 8.35352 33.4043 8.31445L33.5039 8.53125C33.4336 8.58203 33.3438 8.64062 33.2344 8.70703C33.1289 8.76953 33.0059 8.83008 32.8652 8.88867C32.7285 8.94727 32.5762 8.99609 32.4082 9.03516C32.2402 9.07422 32.0605 9.09375 31.8691 9.09375C31.6035 9.09375 31.3887 9.06055 31.2246 8.99414C31.0645 8.92773 30.9375 8.8457 30.8438 8.74805C30.7539 8.65039 30.6875 8.54688 30.6445 8.4375C30.6055 8.32812 30.5742 8.23242 30.5508 8.15039L30.082 6.52734ZM28.9453 2.56641C28.7852 3.21875 28.6289 3.83203 28.4766 4.40625C28.3281 4.98047 28.1797 5.51562 28.0312 6.01172H29.9414L28.9453 2.56641Z" fill="#694429"/>
<path d="M20.0625 7.95703C20.0625 8.04688 20.0703 8.13281 20.0859 8.21484C20.1055 8.29297 20.1406 8.36133 20.1914 8.41992C20.2461 8.47852 20.3184 8.52539 20.4082 8.56055C20.502 8.5957 20.623 8.61328 20.7715 8.61328C20.9863 8.61328 21.1836 8.55273 21.3633 8.43164C21.543 8.30664 21.6973 8.14844 21.8262 7.95703C21.9551 7.76172 22.0547 7.54492 22.125 7.30664C22.1953 7.06445 22.2305 6.82422 22.2305 6.58594C22.2305 6.23047 22.1816 5.91797 22.084 5.64844C21.9902 5.375 21.8574 5.14453 21.6855 4.95703C21.5137 4.76953 21.3105 4.625 21.0762 4.52344C20.8418 4.41797 20.5879 4.35742 20.3145 4.3418L20.4316 4.04297C20.6035 4.05078 20.7676 4.02734 20.9238 3.97266C21.0801 3.91797 21.2168 3.82227 21.334 3.68555C21.4551 3.54883 21.5508 3.36523 21.6211 3.13477C21.6914 2.90039 21.7266 2.60742 21.7266 2.25586C21.7266 2.01758 21.6973 1.80273 21.6387 1.61133C21.5801 1.41992 21.502 1.25977 21.4043 1.13086C21.3105 0.998047 21.1992 0.896484 21.0703 0.826172C20.9453 0.755859 20.8164 0.720703 20.6836 0.720703C20.6016 0.720703 20.5215 0.730469 20.4434 0.75C20.3691 0.769531 20.3027 0.802734 20.2441 0.849609C20.1895 0.896484 20.1445 0.958984 20.1094 1.03711C20.0781 1.11133 20.0625 1.20508 20.0625 1.31836V7.95703ZM20.1797 0.240234C21.3125 0.240234 22.1445 0.417969 22.6758 0.773438C23.2109 1.125 23.4785 1.63867 23.4785 2.31445C23.4785 2.48242 23.459 2.63672 23.4199 2.77734C23.3848 2.91797 23.3379 3.04688 23.2793 3.16406C23.2207 3.27734 23.1543 3.37891 23.0801 3.46875C23.0059 3.55859 22.9297 3.63672 22.8516 3.70312C22.668 3.86328 22.4609 3.98828 22.2305 4.07812V4.16602C22.5938 4.20898 22.9199 4.31836 23.209 4.49414C23.3301 4.56836 23.4492 4.66211 23.5664 4.77539C23.6836 4.88477 23.7871 5.01953 23.877 5.17969C23.9707 5.33594 24.0449 5.51953 24.0996 5.73047C24.1582 5.9375 24.1875 6.17578 24.1875 6.44531C24.1875 6.85547 24.1133 7.22461 23.9648 7.55273C23.8164 7.88086 23.5957 8.16016 23.3027 8.39062C23.0098 8.61719 22.6445 8.79102 22.207 8.91211C21.7695 9.0332 21.2617 9.09375 20.6836 9.09375C20.1484 9.09375 19.7129 9.06055 19.377 8.99414C19.041 8.92773 18.7793 8.83203 18.5918 8.70703C18.4043 8.57812 18.2754 8.42383 18.2051 8.24414C18.1387 8.06445 18.1055 7.86133 18.1055 7.63477V1.22461C18.1055 1.00977 17.957 0.902344 17.6602 0.902344C17.4453 0.902344 17.2266 0.935547 17.0039 1.00195C16.7852 1.06445 16.5859 1.15234 16.4062 1.26562C16.2305 1.375 16.0859 1.50781 15.9727 1.66406C15.8594 1.81641 15.8027 1.98242 15.8027 2.16211C15.8027 2.28711 15.8184 2.38672 15.8496 2.46094C15.8848 2.53516 15.9238 2.5918 15.9668 2.63086C16.0098 2.66602 16.0527 2.68945 16.0957 2.70117C16.1426 2.70898 16.1758 2.71289 16.1953 2.71289C16.293 2.71289 16.373 2.69727 16.4355 2.66602C16.498 2.63086 16.5547 2.5957 16.6055 2.56055C16.6562 2.52148 16.7031 2.48633 16.7461 2.45508C16.793 2.41992 16.8457 2.40234 16.9043 2.40234C16.9512 2.40234 17 2.41406 17.0508 2.4375C17.1055 2.45703 17.1543 2.49023 17.1973 2.53711C17.2441 2.58398 17.2832 2.64648 17.3145 2.72461C17.3457 2.79883 17.3613 2.89062 17.3613 3C17.3613 3.15625 17.3301 3.29102 17.2676 3.4043C17.209 3.51758 17.1309 3.61328 17.0332 3.69141C16.9395 3.76562 16.8301 3.82227 16.7051 3.86133C16.584 3.89648 16.4629 3.91406 16.3418 3.91406C16.1543 3.91406 15.9844 3.88281 15.832 3.82031C15.6836 3.75391 15.5566 3.66406 15.4512 3.55078C15.3457 3.4375 15.2656 3.30469 15.2109 3.15234C15.1562 3 15.1289 2.83789 15.1289 2.66602C15.1289 2.3418 15.1895 2.05664 15.3105 1.81055C15.4316 1.56055 15.6016 1.3457 15.8203 1.16602C16.043 0.986328 16.3086 0.837891 16.6172 0.720703C16.9258 0.599609 17.2676 0.503906 17.6426 0.433594C18.0176 0.363281 18.418 0.314453 18.8438 0.287109C19.2734 0.255859 19.7188 0.240234 20.1797 0.240234Z" fill="#694429"/>
<path d="M11.707 6.52734H9.49805C9.33398 7.04297 9.15625 7.49023 8.96484 7.86914C8.77734 8.24805 8.56836 8.5625 8.33789 8.8125C8.10742 9.0625 7.85352 9.24805 7.57617 9.36914C7.30273 9.49023 6.99609 9.55078 6.65625 9.55078C6.46875 9.55078 6.28906 9.5332 6.11719 9.49805C5.94141 9.4668 5.78711 9.42188 5.6543 9.36328C5.52148 9.30469 5.41602 9.23438 5.33789 9.15234C5.25586 9.07422 5.21484 8.98828 5.21484 8.89453C5.21484 8.82422 5.22656 8.75391 5.25 8.68359C5.26953 8.60938 5.29883 8.54297 5.33789 8.48438C5.37695 8.42188 5.42578 8.37305 5.48438 8.33789C5.53906 8.29883 5.60156 8.2793 5.67188 8.2793C5.73438 8.2793 5.78906 8.32227 5.83594 8.4082C5.88281 8.49414 5.94336 8.58984 6.01758 8.69531C6.08789 8.79688 6.17969 8.89062 6.29297 8.97656C6.40625 9.0625 6.5625 9.10547 6.76172 9.10547C6.96484 9.10547 7.1582 9.05664 7.3418 8.95898C7.52539 8.86133 7.70117 8.70898 7.86914 8.50195C8.04102 8.29102 8.20508 8.02344 8.36133 7.69922C8.51758 7.375 8.66992 6.98438 8.81836 6.52734H7.43555V6.01172H8.9707C9.09961 5.57422 9.22461 5.13281 9.3457 4.6875C9.4707 4.24219 9.58789 3.81445 9.69727 3.4043C9.80664 2.99414 9.9043 2.61133 9.99023 2.25586C10.0762 1.89648 10.1484 1.58398 10.207 1.31836C10.1289 1.09961 10.0215 0.953125 9.88477 0.878906C9.75195 0.804688 9.57227 0.767578 9.3457 0.767578C9.13477 0.767578 8.91602 0.800781 8.68945 0.867188C8.4668 0.929688 8.26367 1.02148 8.08008 1.14258C7.89648 1.25977 7.74414 1.40625 7.62305 1.58203C7.50586 1.75391 7.44727 1.94727 7.44727 2.16211C7.44727 2.28711 7.46289 2.38672 7.49414 2.46094C7.5293 2.53516 7.56836 2.5918 7.61133 2.63086C7.6582 2.66602 7.70312 2.68945 7.74609 2.70117C7.78906 2.70898 7.82227 2.71289 7.8457 2.71289C7.93945 2.71289 8.01758 2.69727 8.08008 2.66602C8.14648 2.63086 8.20312 2.5957 8.25 2.56055C8.30078 2.52148 8.34961 2.48633 8.39648 2.45508C8.44336 2.41992 8.49609 2.40234 8.55469 2.40234C8.59766 2.40234 8.64453 2.41406 8.69531 2.4375C8.75 2.45703 8.79883 2.49023 8.8418 2.53711C8.88867 2.58398 8.92773 2.64648 8.95898 2.72461C8.99023 2.79883 9.00586 2.89062 9.00586 3C9.00586 3.15625 8.97461 3.29102 8.91211 3.4043C8.85352 3.51758 8.77539 3.61328 8.67773 3.69141C8.58398 3.76562 8.47461 3.82227 8.34961 3.86133C8.22852 3.89648 8.10742 3.91406 7.98633 3.91406C7.79883 3.91406 7.62891 3.88086 7.47656 3.81445C7.32812 3.74414 7.20117 3.65039 7.0957 3.5332C6.99023 3.41602 6.91016 3.2793 6.85547 3.12305C6.80078 2.9668 6.77344 2.80273 6.77344 2.63086C6.77344 2.37305 6.81641 2.13672 6.90234 1.92188C6.98828 1.70312 7.10742 1.50586 7.25977 1.33008C7.41211 1.15039 7.5918 0.994141 7.79883 0.861328C8.00586 0.724609 8.22852 0.611328 8.4668 0.521484C8.70898 0.427734 8.96094 0.357422 9.22266 0.310547C9.48438 0.263672 9.74805 0.240234 10.0137 0.240234C10.3887 0.240234 10.7051 0.271484 10.9629 0.333984C11.2246 0.392578 11.4434 0.482422 11.6191 0.603516C11.7949 0.720703 11.9355 0.871094 12.041 1.05469C12.1504 1.23438 12.2402 1.44336 12.3105 1.68164L13.5703 6.01172H14.8418V6.52734H13.7109L14.168 8.0625C14.1836 8.12109 14.1992 8.17578 14.2148 8.22656C14.2305 8.27734 14.248 8.32227 14.2676 8.36133C14.291 8.39648 14.3184 8.42578 14.3496 8.44922C14.3848 8.47266 14.4277 8.48438 14.4785 8.48438C14.5879 8.48438 14.6895 8.4668 14.7832 8.43164C14.877 8.39258 14.959 8.35352 15.0293 8.31445L15.1289 8.53125C15.0586 8.58203 14.9688 8.64062 14.8594 8.70703C14.7539 8.76953 14.6309 8.83008 14.4902 8.88867C14.3535 8.94727 14.2012 8.99609 14.0332 9.03516C13.8652 9.07422 13.6855 9.09375 13.4941 9.09375C13.2285 9.09375 13.0137 9.06055 12.8496 8.99414C12.6895 8.92773 12.5625 8.8457 12.4688 8.74805C12.3789 8.65039 12.3125 8.54688 12.2695 8.4375C12.2305 8.32812 12.1992 8.23242 12.1758 8.15039L11.707 6.52734ZM10.5703 2.56641C10.4102 3.21875 10.2539 3.83203 10.1016 4.40625C9.95312 4.98047 9.80469 5.51562 9.65625 6.01172H11.5664L10.5703 2.56641Z" fill="#694429"/>
<path d="M2.55469 9.84961C2.71094 9.84961 2.86523 9.82031 3.01758 9.76172C3.16992 9.70703 3.30469 9.61328 3.42188 9.48047C3.54297 9.35156 3.64062 9.18164 3.71484 8.9707C3.78906 8.75977 3.82617 8.50195 3.82617 8.19727C3.82617 7.86914 3.74414 7.55078 3.58008 7.24219C3.41992 6.93359 3.2168 6.63086 2.9707 6.33398C2.72852 6.0332 2.46484 5.73633 2.17969 5.44336C1.89844 5.14648 1.63477 4.8457 1.38867 4.54102C1.14648 4.23242 0.943359 3.91602 0.779297 3.5918C0.619141 3.26367 0.539062 2.92188 0.539062 2.56641C0.539062 2.21094 0.603516 1.89062 0.732422 1.60547C0.865234 1.31641 1.04297 1.07227 1.26562 0.873047C1.49219 0.669922 1.75391 0.513672 2.05078 0.404297C2.35156 0.294922 2.67188 0.240234 3.01172 0.240234C3.375 0.240234 3.69727 0.279297 3.97852 0.357422C4.26367 0.431641 4.50391 0.535156 4.69922 0.667969C4.89844 0.796875 5.04883 0.951172 5.15039 1.13086C5.25195 1.30664 5.30273 1.49414 5.30273 1.69336C5.30273 1.78711 5.28906 1.88477 5.26172 1.98633C5.23438 2.08398 5.19141 2.17383 5.13281 2.25586C5.07422 2.33789 5 2.40625 4.91016 2.46094C4.82031 2.51562 4.71484 2.54297 4.59375 2.54297C4.44922 2.54297 4.3418 2.5 4.27148 2.41406C4.20508 2.32422 4.1543 2.21484 4.11914 2.08594C4.08789 1.95703 4.06055 1.81641 4.03711 1.66406C4.01367 1.50781 3.97656 1.36523 3.92578 1.23633C3.875 1.10742 3.79883 1 3.69727 0.914062C3.5957 0.824219 3.44727 0.779297 3.25195 0.779297C3.14648 0.779297 3.04102 0.802734 2.93555 0.849609C2.83398 0.896484 2.74023 0.96875 2.6543 1.06641C2.57227 1.16016 2.50586 1.28125 2.45508 1.42969C2.4043 1.57812 2.37891 1.75391 2.37891 1.95703C2.37891 2.19141 2.42773 2.41992 2.52539 2.64258C2.62305 2.86523 2.75195 3.08594 2.91211 3.30469C3.07227 3.51953 3.25391 3.73633 3.45703 3.95508C3.66406 4.16992 3.87305 4.38867 4.08398 4.61133C4.29883 4.83008 4.50781 5.05664 4.71094 5.29102C4.91797 5.52148 5.10156 5.76172 5.26172 6.01172C5.42188 6.26172 5.55078 6.52344 5.64844 6.79688C5.74609 7.07031 5.79492 7.35742 5.79492 7.6582C5.79492 8.09961 5.70898 8.49414 5.53711 8.8418C5.36914 9.18555 5.13867 9.47461 4.8457 9.70898C4.55664 9.94727 4.2168 10.1289 3.82617 10.2539C3.43555 10.3789 3.01953 10.4414 2.57812 10.4414C2.17969 10.4414 1.82617 10.3906 1.51758 10.2891C1.21289 10.1914 0.955078 10.0605 0.744141 9.89648C0.533203 9.73242 0.373047 9.54492 0.263672 9.33398C0.158203 9.12695 0.105469 8.91211 0.105469 8.68945C0.105469 8.5957 0.119141 8.49609 0.146484 8.39062C0.177734 8.28125 0.220703 8.18164 0.275391 8.0918C0.333984 8.00195 0.40625 7.92773 0.492188 7.86914C0.578125 7.80664 0.677734 7.77539 0.791016 7.77539C0.908203 7.77539 1.00195 7.80469 1.07227 7.86328C1.14648 7.92188 1.20508 8 1.24805 8.09766C1.29102 8.19531 1.32617 8.30664 1.35352 8.43164C1.38086 8.55664 1.41016 8.68359 1.44141 8.8125C1.47266 8.94141 1.51172 9.06836 1.55859 9.19336C1.60547 9.31836 1.66992 9.42969 1.75195 9.52734C1.83398 9.625 1.93945 9.70312 2.06836 9.76172C2.19727 9.82031 2.35938 9.84961 2.55469 9.84961Z" fill="#694429"/>
</svg>
